# xmcd
#
# Track frame offsets:
#	150
#	20190
#	37540
#	63040
#	84830
#	102241
#	116766
#	132466
#	157996
#	174376
#	186113
#	205704
#	240738
#
# Disc length: 3498 seconds
#
# Revision: 1
# Processed by: cddbd v1.5.2PL0 Copyright (c) Steve Scherf et al.
# Submitted via: audiograbber 1.83.01
#
DISCID=9d0da80d
DTITLE=G. Love and Special Sauce - Yeah, it's that easy
DYEAR=1997
DGENRE=Alternative Rock
TTITLE0=Stepping stones
TTITLE1=I-76
TTITLE2=Lay down the law
TTITLE3=Slipped away (the ballad of Lauretha Vaird)
TTITLE4=You shall see
TTITLE5=Take you there
TTITLE6=Willow tree
TTITLE7=Yeah, it's that easy
TTITLE8=Recipe
TTITLE9=200 years
TTITLE10=Making amends
TTITLE11=Pull the wool
TTITLE12=When we meet again
EXTD=
EXTT0=
EXTT1=
EXTT2=
EXTT3=
EXTT4=
EXTT5=
EXTT6=
EXTT7=
EXTT8=
EXTT9=
EXTT10=
EXTT11=
EXTT12=
PLAYORDER=
